<svg xmlns="http://www.w3.org/2000/svg"  style="width: 1em;height: 1em;vertical-align: middle;fill: currentColor;overflow: hidden;" viewBox="0 0 1024 1024" version="1.1">
<path fill="gray" d="M663.885 269.408H360.116c-20.435 0-37-16.565-37-37V127.441c0-20.435 16.565-37 37-37h303.769c20.435 0 37 16.565 37 37v104.967c0 20.434-16.566 37-37 37z m-266.769-74h229.769v-30.967H397.116v30.967z"/>
<path fill="gray" d="M774.426 957.029H249.575c-20.435 0-37-16.565-37-37V258.8c0-20.435 16.565-37 37-37s37 16.565 37 37v624.228h450.851V258.8c0-20.435 16.565-37 37-37s37 16.565 37 37v661.228c0 20.435-16.566 37.001-37 37.001z"/>
<path fill="gray" d="M861.011 271.441H162.99c-20.435 0-37-16.565-37-37s16.565-37 37-37h698.021c20.435 0 37 16.565 37 37s-16.566 37-37 37zM416.076 737.441c-20.435 0-37-16.565-37-37V476.415c0-20.435 16.565-37 37-37s37 16.565 37 37v224.026c0 20.435-16.565 37-37 37z"/></svg>