<svg version="1.1" width="32px" height="32px" id="Слой_1" xmlns="http://www.w3.org/2000/svg" xmlns:xlink="http://www.w3.org/1999/xlink" x="0px" y="0px"
      viewBox="0 0 200 200" style="enable-background:new 0 0 200 200;" xml:space="preserve">
   <style type="text/css">
     .st0{fill:#ffffff;}
     .st1{fill:#ffffff;}
   </style>
   <g transform="translate(0.000000,300.000000) scale(0.100000,-0.100000)">
     <path id="node1" class="st0" d="M910.42,2988.83c-6.52-6.52-11.17-36.3-11.17-69.81c0-66.08-4.65-70.74-77.25-80.98
       c-24.2-3.72-67.95-14.89-96.8-25.13c-28.85-9.31-53.05-17.68-53.98-17.68c-0.93,0-17.68,23.27-36.3,51.19
       c-39.09,59.57-56.78,63.29-124.72,28.85c-90.28-46.54-97.73-65.15-55.85-141.48l26.06-47.47l-82.84-83.77l-82.84-84.7l-46.54,26.99
       c-61.43,34.44-85.63,34.44-111.69-0.93c-11.17-14.89-20.48-30.72-20.48-34.44c0-3.72-8.38-17.68-18.62-30.72
       c-10.24-13.03-18.62-36.3-18.62-52.12c0-24.2,6.52-33.51,37.23-53.98c20.48-13.03,40.95-24.2,45.61-24.2
       c21.41,0,26.99-24.2,13.03-65.15c-8.38-23.27-21.41-73.53-29.78-111.69l-14.89-69.81l-65.15-2.79
       c-35.37-1.86-69.81-7.45-76.32-13.03c-8.38-6.52-12.1-35.37-12.1-87.49c0-98.66,6.52-106.11,92.15-106.11h63.29l11.17-65.15
       c6.52-35.37,19.55-85.63,29.78-111.69l17.68-46.54l-55.85-34.44c-77.25-48.4-76.32-70.74,4.65-186.15
       c19.55-28.85,60.5-27.92,107.04,1.86c20.48,13.03,39.09,23.27,41.88,23.27c11.17,0,162.88-159.16,162.88-170.33
       c0-5.58-8.38-25.13-19.55-42.82c-12.1-19.55-17.68-42.81-15.82-65.15c2.79-29.78,8.38-37.23,53.98-63.29
       c28.85-17.68,63.29-30.72,80.98-30.72c26.99,0,34.44,6.52,64.22,51.19l33.51,50.26l48.4-18.62c26.06-10.24,77.25-24.2,112.62-30.72
       l65.15-11.17l4.65-69.81l4.65-68.88h97.73h97.73l2.79,67.01c2.79,74.46,0,70.74,79.11,81.91c24.2,2.79,67.95,13.96,97.73,24.2
       l53.05,18.62l20.48-26.06c12.1-13.96,21.41-31.65,21.41-37.23c0-6.52,10.24-18.62,23.27-26.99c28.85-19.55,56.78-12.1,121.93,28.85
       c43.75,27.92,50.26,36.3,50.26,62.36c0,16.75-8.38,44.68-18.62,61.43s-17.68,35.37-17.68,41.88c0.93,5.58,38.16,45.61,82.84,88.42
       l81.91,78.18l37.23-19.55c46.54-24.2,87.49-25.13,106.11-3.72c28.85,33.51,63.29,103.31,63.29,127.51
       c0,19.55-9.31,30.72-46.54,53.98c-25.13,15.82-46.54,33.51-46.54,40.02c0,5.58,7.45,33.51,17.68,61.43
       c9.31,28.85,20.48,69.81,24.2,93.08c11.17,75.39,10.24,73.53,67.95,73.53c28.85,0,58.64,3.72,65.15,7.45
       c8.38,5.58,11.17,32.58,9.31,100.52l-2.79,92.15l-60.5,2.79c-63.29,2.79-74.46,10.24-74.46,48.4c0,13.03-11.17,60.5-24.2,107.04
       l-25.13,82.84l22.34,14.89c46.54,30.72,73.53,58.64,73.53,76.32c0,10.24-14.89,45.61-33.51,78.18
       c-41.88,74.46-62.36,81.91-125.65,46.54l-44.68-24.2l-85.63,83.77l-85.63,84.7l19.55,35.37c11.17,19.55,20.48,51.19,20.48,68.88
       c0,31.65-3.72,35.37-58.64,67.01c-90.28,49.33-110.76,43.75-157.3-40.95l-15.82-28.85l-48.4,17.68
       c-26.06,10.24-78.18,23.27-116.35,29.78l-68.88,11.17v61.43c0,36.3-4.65,67.01-11.17,73.53s-40.95,11.17-91.21,11.17
       C951.38,3000,916.94,2995.35,910.42,2988.83z M1184.07,2614.66c277.37-83.77,461.66-326.7,463.52-610.58
       c2.79-345.31-261.54-627.33-608.72-648.74C797.8,1340.45,553.01,1480.07,440.39,1696c-188.94,361.14-7.45,798.59,382.54,917.73
       C926.25,2645.38,1080.75,2646.31,1184.07,2614.66z"/>
   </g>
   <g transform="translate(0.000000,300.000000) scale(0.100000,-0.100000)">
     <path id="node3" class="st1" d="M940.3,2218.61c-140.5-42.92-205.88-200.52-137.82-330.62c40.57-77.79,128.76-128.09,215.61-122.73
       c125.07,7.71,220.3,109.31,219.3,233.72c-0.67,102.27-67.06,189.79-166.99,219.97C1033.18,2230.35,977.52,2230.01,940.3,2218.61z"
       />
   </g>
   </svg>
